{"title":"Change.Of.Plans.2011.BRRip.480p.XviD.Ac3.Feel-Free","uid":6466501,"size":1149865248,"categoryP":"video","categoryS":"movies","magnet":"?xt=urn:btih:1e3f287b30734f77b5f97fe7bb81a260782909b1&amp;dn=Change.Of.Plans.2011.BRRip.480p.XviD.Ac3.Feel-Free&amp;tr=udp%3A%2F%2Ftracker.openbittorrent.com%3A80&amp;tr=udp%3A%2F%2Fopen.demonii.com%3A1337&amp;tr=udp%3A%2F%2Ftracker.coppersurfer.tk%3A6969&amp;tr=udp%3A%2F%2Fexodus.desync.com%3A6969","seeders":0,"leechers":1,"uploader":"hiest","files":-1,"time":1307979231,"description":" Full Credits To Feel Free :)\n ######## ######## ######## ##          ######## ########  ######## ######## \n ##       ##       ##       ##          ##       ##     ## ##       ##       \n ##       ##       ##       ##          ##       ##     ## ##       ##       \n ######   ######   ######   ##          ######   ########  ######   ######   \n ##       ##       ##       ##          ##       ##   ##   ##       ##       \n ##       ##       ##       ##          ##       ##    ##  ##       ##       \n ##       ######## ######## ########    ##       ##     ## ######## ######## \n\n\n Genre:Comedy | Drama | Family \n Language:English\n IMDb:http://www.imdb.com/title/tt1790658/\n Source:720p.BluRay.x264-SEMTEX Thanks!\n\n Format : AVI\n Format/Info : Audio Video Interleave\n File size : 1.07 GiB\n Duration : 1h 27mn\n Overall bit rate : 1 740 Kbps\n\n Video\n ID : 0\n Format : MPEG-4 Visual\n Format profile : Advanced Simple@L5\n Format settings, BVOP : Yes\n Format settings, QPel : No\n Format settings, GMC : No warppoints\n Format settings, Matrix : Default (H.263)\n Codec ID : XVID\n Codec ID/Hint : XviD\n Duration : 1h 27mn\n Bit rate : 1 283 Kbps\n Width : 640 pixels\n Height : 360 pixels\n Display aspect ratio : 16:9\n Frame rate : 23.976 fps\n Color space : YUV\n Chroma subsampling : 4:2:0\n Bit depth : 8 bits\n Scan type : Progressive\n Bits/(Pixel*Frame) : 0.232\n Stream size : 807 MiB (74%)\n Writing library : XviD 1.2.1 (UTC 2008-12-04)\n\n Audio\n ID : 1\n Format : AC-3\n Format/Info : Audio Coding 3\n Mode extension : CM (complete main)\n Codec ID : 2000\n Duration : 1h 27mn\n Bit rate mode : Constant\n Bit rate : 448 Kbps\n Channel(s) : 6 channels\n Channel positions : Front: L C R, Side: L R, LFE\n Sampling rate : 48.0 KHz\n Bit depth : 16 bits\n Stream size : 282 MiB (26%)\n Alignment : Aligned on interleaves\n Interleave, duration : 42 ms (1.00 video frame)\n Interleave, preload duration : 512 ms\n\n\n Plot:\n Sally and Jason Danville's life are turned upside down when a tragic \n accident suddenly names them the caretakers of four young children\n\n\n\n\n\n\n ==================================\n &lt;a href=&quot; http://thepiratebay.se/user/hiest&quot; rel=&quot;nofollow&quot; target=&quot;_NEW&quot;&gt; http://thepiratebay.se/user/hiest&lt;/a&gt;\n ==================================\n\n\n\n\n\n\n Screen Shots:\n\n &lt;a href=&quot; http://leetleech.org/images/62342060387563624251.png&quot; rel=&quot;nofollow&quot; target=&quot;_NEW&quot;&gt; http://leetleech.org/images/62342060387563624251.png&lt;/a&gt;\n\n &lt;a href=&quot; http://leetleech.org/images/64966418054541075050.png&quot; rel=&quot;nofollow&quot; target=&quot;_NEW&quot;&gt; http://leetleech.org/images/64966418054541075050.png&lt;/a&gt;\n\n &lt;a href=&quot; http://leetleech.org/images/88320692721814610871.png&quot; rel=&quot;nofollow&quot; target=&quot;_NEW&quot;&gt; http://leetleech.org/images/88320692721814610871.png&lt;/a&gt;\n\n &lt;a href=&quot; http://leetleech.org/images/72662228141262432792.png&quot; rel=&quot;nofollow&quot; target=&quot;_NEW&quot;&gt; http://leetleech.org/images/72662228141262432792.png&lt;/a&gt;\n\n &lt;a href=&quot; http://leetleech.org/images/91698201735909491656.png&quot; rel=&quot;nofollow&quot; target=&quot;_NEW&quot;&gt; http://leetleech.org/images/91698201735909491656.png&lt;/a&gt;\n\n &lt;a href=&quot; http://leetleech.org/images/73528695679382747154.png&quot; rel=&quot;nofollow&quot; target=&quot;_NEW&quot;&gt; http://leetleech.org/images/73528695679382747154.png&lt;/a&gt;\n\n\n Full Credits To Feel Free :)\n ######## ######## ######## ##          ######## ########  ######## ######## \n ##       ##       ##       ##          ##       ##     ## ##       ##       \n ##       ##       ##       ##          ##       ##     ## ##       ##       \n ######   ######   ######   ##          ######   ########  ######   ######   \n ##       ##       ##       ##          ##       ##   ##   ##       ##       \n ##       ##       ##       ##          ##       ##    ##  ##       ##       \n ##       ######## ######## ########    ##       ##     ## ######## ######## ","torrent":{"xt":"urn:btih:1e3f287b30734f77b5f97fe7bb81a260782909b1","amp;dn":"Change.Of.Plans.2011.BRRip.480p.XviD.Ac3.Feel-Free","amp;tr":["udp%3A%2F%2Ftracker.openbittorrent.com%3A80","udp%3A%2F%2Fopen.demonii.com%3A1337","udp%3A%2F%2Ftracker.coppersurfer.tk%3A6969","udp%3A%2F%2Fexodus.desync.com%3A6969"],"infoHash":"1e3f287b30734f77b5f97fe7bb81a260782909b1","infoHashBuffer":{"type":"Buffer","data":[30,63,40,123,48,115,79,119,181,249,127,231,187,129,162,96,120,41,9,177]},"announce":[],"urlList":[]}}